<svg width="35" height="15" viewBox="0 0 35 15" fill="none" xmlns="http://www.w3.org/2000/svg">
<path d="M0.718889 14V12.8817L2.16554 12.6332V2.4534L0.718889 2.2049V1.07775H10.2863V4.18406H8.88405L8.68879 2.42677H3.91395V6.63361H8.67992V8.00926H3.91395V12.6865H8.9728L9.16805 10.9026H10.5615V14H0.718889ZM15.1272 14V12.8817L16.5739 12.6332V2.4534L15.1272 2.2049V1.07775H19.7689V2.2049L18.3223 2.4534V12.6332L19.7689 12.8817V14H15.1272ZM29.3048 14.1864C28.4705 14.1864 27.722 14.0266 27.0593 13.7071C26.3967 13.3876 25.8316 12.9379 25.3642 12.3581C24.9027 11.7723 24.5477 11.0801 24.2992 10.2813C24.0566 9.48254 23.9353 8.60094 23.9353 7.6365V7.45012C23.9353 6.4916 24.0566 5.61296 24.2992 4.8142C24.5477 4.00951 24.9027 3.31429 25.3642 2.72853C25.8316 2.14277 26.3967 1.69014 27.0593 1.37063C27.722 1.05112 28.4705 0.89137 29.3048 0.89137C30.1864 0.89137 30.9615 1.05112 31.6301 1.37063C32.2986 1.69014 32.8578 2.14277 33.3075 2.72853C33.7631 3.31429 34.1062 4.00951 34.337 4.8142C34.5677 5.61296 34.6831 6.4916 34.6831 7.45012V7.6365C34.6831 8.60094 34.5677 9.48254 34.337 10.2813C34.1062 11.0801 33.7631 11.7723 33.3075 12.3581C32.8578 12.9379 32.2986 13.3876 31.6301 13.7071C30.9615 14.0266 30.1864 14.1864 29.3048 14.1864ZM29.3048 12.7309C30.1627 12.7309 30.855 12.5178 31.3815 12.0918C31.9141 11.6658 32.3046 11.0712 32.5531 10.3079C32.8016 9.53875 32.9258 8.64827 32.9258 7.6365V7.43237C32.9258 6.42652 32.7986 5.54492 32.5442 4.78757C32.2957 4.02431 31.9052 3.42967 31.3727 3.00366C30.8402 2.57174 30.1509 2.35577 29.3048 2.35577C28.5297 2.35577 27.8729 2.57174 27.3345 3.00366C26.796 3.43559 26.3878 4.03318 26.1097 4.79645C25.8316 5.55379 25.6926 6.43244 25.6926 7.43237V7.6365C25.6926 8.64235 25.8316 9.52987 26.1097 10.2991C26.3878 11.0623 26.796 11.6599 27.3345 12.0918C27.8729 12.5178 28.5297 12.7309 29.3048 12.7309Z" fill="black" style="mix-blend-mode:darken"/>
<path d="M0.718889 14H-0.281111V15H0.718889V14ZM0.718889 12.8817L0.54959 11.8962L-0.281111 12.0389V12.8817H0.718889ZM2.16554 12.6332L2.33484 13.6188L3.16554 13.4761V12.6332H2.16554ZM2.16554 2.4534H3.16554V1.61053L2.33484 1.46784L2.16554 2.4534ZM0.718889 2.2049H-0.281111V3.04776L0.54959 3.19046L0.718889 2.2049ZM0.718889 1.07775V0.0777487H-0.281111V1.07775H0.718889ZM10.2863 1.07775H11.2863V0.0777487H10.2863V1.07775ZM10.2863 4.18406V5.18406H11.2863V4.18406H10.2863ZM8.88405 4.18406L7.89016 4.29449L7.989 5.18406H8.88405V4.18406ZM8.68879 2.42677L9.68268 2.31634L9.58384 1.42677H8.68879V2.42677ZM3.91395 2.42677V1.42677H2.91395V2.42677H3.91395ZM3.91395 6.63361H2.91395V7.63361H3.91395V6.63361ZM8.67992 6.63361H9.67992V5.63361H8.67992V6.63361ZM8.67992 8.00926V9.00926H9.67992V8.00926H8.67992ZM3.91395 8.00926V7.00926H2.91395V8.00926H3.91395ZM3.91395 12.6865H2.91395V13.6865H3.91395V12.6865ZM8.9728 12.6865V13.6865H9.86932L9.96686 12.7953L8.9728 12.6865ZM9.16805 10.9026V9.90256H8.27153L8.17399 10.7938L9.16805 10.9026ZM10.5615 10.9026H11.5615V9.90256H10.5615V10.9026ZM10.5615 14V15H11.5615V14H10.5615ZM1.71889 14V12.8817H-0.281111V14H1.71889ZM0.888188 13.8673L2.33484 13.6188L1.99624 11.6477L0.54959 11.8962L0.888188 13.8673ZM3.16554 12.6332V2.4534H1.16554V12.6332H3.16554ZM2.33484 1.46784L0.888188 1.21933L0.54959 3.19046L1.99624 3.43897L2.33484 1.46784ZM1.71889 2.2049V1.07775H-0.281111V2.2049H1.71889ZM0.718889 2.07775H10.2863V0.0777487H0.718889V2.07775ZM9.28633 1.07775V4.18406H11.2863V1.07775H9.28633ZM10.2863 3.18406H8.88405V5.18406H10.2863V3.18406ZM9.87793 4.07363L9.68268 2.31634L7.69491 2.53721L7.89016 4.29449L9.87793 4.07363ZM8.68879 1.42677H3.91395V3.42677H8.68879V1.42677ZM2.91395 2.42677V6.63361H4.91395V2.42677H2.91395ZM3.91395 7.63361H8.67992V5.63361H3.91395V7.63361ZM7.67992 6.63361V8.00926H9.67992V6.63361H7.67992ZM8.67992 7.00926H3.91395V9.00926H8.67992V7.00926ZM2.91395 8.00926V12.6865H4.91395V8.00926H2.91395ZM3.91395 13.6865H8.9728V11.6865H3.91395V13.6865ZM9.96686 12.7953L10.1621 11.0114L8.17399 10.7938L7.97874 12.5777L9.96686 12.7953ZM9.16805 11.9026H10.5615V9.90256H9.16805V11.9026ZM9.56146 10.9026V14H11.5615V10.9026H9.56146ZM10.5615 13H0.718889V15H10.5615V13ZM15.1272 14H14.1272V15H15.1272V14ZM15.1272 12.8817L14.9579 11.8962L14.1272 12.0389V12.8817H15.1272ZM16.5739 12.6332L16.7432 13.6188L17.5739 13.4761V12.6332H16.5739ZM16.5739 2.4534H17.5739V1.61053L16.7432 1.46784L16.5739 2.4534ZM15.1272 2.2049H14.1272V3.04776L14.9579 3.19046L15.1272 2.2049ZM15.1272 1.07775V0.0777487H14.1272V1.07775H15.1272ZM19.7689 1.07775H20.7689V0.0777487H19.7689V1.07775ZM19.7689 2.2049L19.9382 3.19046L20.7689 3.04776V2.2049H19.7689ZM18.3223 2.4534L18.153 1.46784L17.3223 1.61053V2.4534H18.3223ZM18.3223 12.6332H17.3223V13.4761L18.153 13.6188L18.3223 12.6332ZM19.7689 12.8817H20.7689V12.0389L19.9382 11.8962L19.7689 12.8817ZM19.7689 14V15H20.7689V14H19.7689ZM16.1272 14V12.8817H14.1272V14H16.1272ZM15.2965 13.8673L16.7432 13.6188L16.4046 11.6477L14.9579 11.8962L15.2965 13.8673ZM17.5739 12.6332V2.4534H15.5739V12.6332H17.5739ZM16.7432 1.46784L15.2965 1.21933L14.9579 3.19046L16.4046 3.43897L16.7432 1.46784ZM16.1272 2.2049V1.07775H14.1272V2.2049H16.1272ZM15.1272 2.07775H19.7689V0.0777487H15.1272V2.07775ZM18.7689 1.07775V2.2049H20.7689V1.07775H18.7689ZM19.5996 1.21933L18.153 1.46784L18.4916 3.43897L19.9382 3.19046L19.5996 1.21933ZM17.3223 2.4534V12.6332H19.3223V2.4534H17.3223ZM18.153 13.6188L19.5996 13.8673L19.9382 11.8962L18.4916 11.6477L18.153 13.6188ZM18.7689 12.8817V14H20.7689V12.8817H18.7689ZM19.7689 13H15.1272V15H19.7689V13ZM25.3642 12.3581L24.5786 12.977L24.5856 12.9857L25.3642 12.3581ZM24.2992 10.2813L23.3423 10.5719L23.3443 10.5784L24.2992 10.2813ZM24.2992 4.8142L23.3437 4.51912L23.3423 4.5236L24.2992 4.8142ZM25.3642 2.72853L24.5825 2.10479L24.5787 2.10966L25.3642 2.72853ZM33.3075 2.72853L32.5142 3.33748L32.5181 3.34247L33.3075 2.72853ZM34.337 4.8142L33.3757 5.08985L33.3763 5.09174L34.337 4.8142ZM33.3075 12.3581L32.5181 11.7442L32.5172 11.7453L33.3075 12.3581ZM31.3815 12.0918L30.7568 11.311L30.7526 11.3144L31.3815 12.0918ZM32.5531 10.3079L33.5039 10.6175L33.5046 10.6154L32.5531 10.3079ZM32.5442 4.78757L31.5933 5.09717L31.5963 5.10602L32.5442 4.78757ZM31.3727 3.00366L30.7427 3.78032L30.748 3.78453L31.3727 3.00366ZM26.1097 4.79645L27.0484 5.14113L27.0493 5.13877L26.1097 4.79645ZM26.1097 10.2991L25.1693 10.6391L25.1701 10.6414L26.1097 10.2991ZM27.3345 12.0918L26.7087 12.8719L26.714 12.8761L27.3345 12.0918ZM29.3048 13.1864C28.6006 13.1864 28.0037 13.0523 27.4936 12.8064L26.625 14.6079C27.4403 15.001 28.3403 15.1864 29.3048 15.1864V13.1864ZM27.4936 12.8064C26.9662 12.5521 26.5183 12.1964 26.1427 11.7305L24.5856 12.9857C25.1449 13.6795 25.8271 14.2232 26.625 14.6079L27.4936 12.8064ZM26.1497 11.7392C25.7725 11.2605 25.4706 10.6804 25.254 9.98424L23.3443 10.5784C23.6247 11.4797 24.0329 12.2842 24.5787 12.977L26.1497 11.7392ZM25.256 9.99071C25.0461 9.29946 24.9353 8.51742 24.9353 7.6365H22.9353C22.9353 8.68446 23.0671 9.66562 23.3423 10.5719L25.256 9.99071ZM24.9353 7.6365V7.45012H22.9353V7.6365H24.9353ZM24.9353 7.45012C24.9353 6.57578 25.0459 5.79659 25.256 5.10479L23.3423 4.5236C23.0672 5.42934 22.9353 6.40743 22.9353 7.45012H24.9353ZM25.2546 5.10927C25.4715 4.40697 25.7734 3.82493 26.1497 3.3474L24.5787 2.10966C24.0319 2.80366 23.6238 3.61206 23.3437 4.51912L25.2546 5.10927ZM26.1458 3.35226C26.5215 2.88146 26.9686 2.52453 27.4936 2.2714L26.625 0.469861C25.8247 0.855743 25.1417 1.40408 24.5825 2.1048L26.1458 3.35226ZM27.4936 2.2714C28.0037 2.02546 28.6006 1.89137 29.3048 1.89137V-0.10863C28.3403 -0.10863 27.4403 0.076788 26.625 0.469861L27.4936 2.2714ZM29.3048 1.89137C30.0651 1.89137 30.6881 2.0288 31.1989 2.2729L32.0612 0.46836C31.2348 0.0734434 30.3076 -0.10863 29.3048 -0.10863V1.89137ZM31.1989 2.2729C31.7259 2.52475 32.1608 2.87708 32.5142 3.33747L34.1007 2.11959C33.5548 1.40846 32.8714 0.855526 32.0612 0.46836L31.1989 2.2729ZM32.5181 3.34247C32.8859 3.81539 33.1757 4.39223 33.3757 5.08985L35.2982 4.53854C35.0368 3.6268 34.6402 2.8132 34.0968 2.11459L32.5181 3.34247ZM33.3763 5.09174C33.5773 5.78775 33.6831 6.57149 33.6831 7.45012H35.6831C35.6831 6.41172 35.5581 5.43817 35.2977 4.53666L33.3763 5.09174ZM33.6831 7.45012V7.6365H35.6831V7.45012H33.6831ZM33.6831 7.6365C33.6831 8.52168 33.5772 9.30827 33.3763 10.0038L35.2977 10.5588C35.5583 9.65681 35.6831 8.6802 35.6831 7.6365H33.6831ZM33.3763 10.0038C33.1765 10.6952 32.8869 11.27 32.5181 11.7442L34.0968 12.972C34.6392 12.2747 35.0359 11.465 35.2977 10.5588L33.3763 10.0038ZM32.5172 11.7453C32.164 12.2007 31.7283 12.5518 31.1989 12.8049L32.0612 14.6094C32.869 14.2234 33.5515 13.6752 34.0977 12.9709L32.5172 11.7453ZM31.1989 12.8049C30.6881 13.0489 30.0651 13.1864 29.3048 13.1864V15.1864C30.3076 15.1864 31.2348 15.0043 32.0612 14.6094L31.1989 12.8049ZM29.3048 13.7309C30.3294 13.7309 31.2629 13.4741 32.0105 12.8693L30.7526 11.3144C30.447 11.5616 29.996 11.7309 29.3048 11.7309V13.7309ZM32.0062 12.8727C32.7165 12.3045 33.2059 11.5328 33.5039 10.6175L31.6022 9.99834C31.4032 10.6095 31.1116 11.0272 30.7569 11.311L32.0062 12.8727ZM33.5046 10.6154C33.7921 9.72551 33.9258 8.72756 33.9258 7.6365H31.9258C31.9258 8.56899 31.811 9.35199 31.6015 10.0005L33.5046 10.6154ZM33.9258 7.6365V7.43237H31.9258V7.6365H33.9258ZM33.9258 7.43237C33.9258 6.34502 33.7886 5.35173 33.4921 4.46912L31.5963 5.10602C31.8086 5.73811 31.9258 6.50802 31.9258 7.43237H33.9258ZM33.4951 4.47798C33.1971 3.56266 32.7076 2.79099 31.9974 2.22279L30.748 3.78453C31.1027 4.06835 31.3943 4.48595 31.5933 5.09716L33.4951 4.47798ZM32.0026 2.22702C31.2533 1.61925 30.325 1.35577 29.3048 1.35577V3.35577C29.9767 3.35577 30.427 3.52422 30.7427 3.7803L32.0026 2.22702ZM29.3048 1.35577C28.3317 1.35577 27.4464 1.63186 26.7087 2.22363L27.9602 3.78369C28.2994 3.51162 28.7276 3.35577 29.3048 3.35577V1.35577ZM26.7087 2.22363C26.0041 2.78889 25.4996 3.54974 25.1701 4.45412L27.0493 5.13877C27.276 4.51662 27.588 4.08229 27.9602 3.78369L26.7087 2.22363ZM25.171 4.45176C24.844 5.34237 24.6926 6.34194 24.6926 7.43237H26.6926C26.6926 6.52293 26.8193 5.76522 27.0484 5.14113L25.171 4.45176ZM24.6926 7.43237V7.6365H26.6926V7.43237H24.6926ZM24.6926 7.6365C24.6926 8.73259 24.8439 9.73905 25.1693 10.6391L27.0501 9.95905C26.8193 9.32069 26.6926 8.55212 26.6926 7.6365H24.6926ZM25.1701 10.6414C25.4996 11.5458 26.0041 12.3066 26.7087 12.8719L27.9602 11.3118C27.588 11.0132 27.276 10.5789 27.0493 9.95673L25.1701 10.6414ZM26.714 12.8761C27.4516 13.4597 28.3351 13.7309 29.3048 13.7309V11.7309C28.7243 11.7309 28.2941 11.576 27.9549 11.3076L26.714 12.8761Z" fill="black"/>
</svg>
